<svg id="SvgjsSvg1015" xmlns="http://www.w3.org/2000/svg" version="1.1" xmlns:xlink="http://www.w3.org/1999/xlink" xmlns:svgjs="http://svgjs.com/svgjs" width="175" height="184" viewBox="0 0 175 184"><title>Forma 1</title><desc>Created with Avocode.</desc><defs id="SvgjsDefs1016"></defs><path id="SvgjsPath1017" d="M863.581 295.886L909.8340000000001 309.93800000000005L912.1450000000001 302.32700000000006L862.5930000000001 287.2730000000001L840.57 299.9870000000001L844.5440000000001 306.87700000000007ZM863.581 309.922L909.8340000000001 323.975L912.1450000000001 316.36400000000003L862.5930000000001 301.309L840.57 314.024L844.5440000000001 320.913ZM863.581 323.958L909.8340000000001 338.011L912.1450000000001 330.40000000000003L862.5930000000001 315.34600000000006L840.57 328.06000000000006L844.5440000000001 334.94900000000007ZM863.581 337.995L909.8340000000001 352.048L912.1450000000001 344.437L862.5930000000001 329.382L840.57 342.097L844.5440000000001 348.986ZM863.581 352.031L909.8340000000001 366.084L912.1450000000001 358.473L862.5930000000001 343.418L840.57 356.133L844.543 363.022ZM863.581 366.068L909.8340000000001 380.12L912.1450000000001 372.509L862.5930000000001 357.45500000000004L840.57 370.16900000000004L844.543 377.05800000000005ZM863.581 380.104L909.8340000000001 394.157L912.1450000000001 386.546L862.5930000000001 371.491L840.57 384.205L844.543 391.094ZM863.581 394.14L909.8340000000001 408.193L912.1450000000001 400.582L862.5930000000001 385.528L840.57 398.242L844.543 405.13100000000003ZM939.137 295.886L985.39 309.93800000000005L987.6999999999999 302.32700000000006L938.1479999999999 287.2730000000001L916.1259999999999 299.9870000000001L920.0989999999998 306.87700000000007ZM939.137 281.849L985.39 295.902L987.6999999999999 288.291L938.1479999999999 273.236L916.1259999999999 285.95099999999996L920.0989999999998 292.84ZM939.137 267.813L985.39 281.866L987.6999999999999 274.25399999999996L938.1479999999999 259.2L916.1259999999999 271.91499999999996L920.0989999999998 278.804ZM939.137 309.922L985.39 323.975L987.6999999999999 316.36400000000003L938.1479999999999 301.309L916.1259999999999 314.024L920.0989999999998 320.913ZM939.137 323.958L985.39 338.011L987.6999999999999 330.40000000000003L938.1479999999999 315.34600000000006L916.1259999999999 328.06000000000006L920.0989999999998 334.94900000000007ZM939.137 337.995L985.39 352.048L987.6999999999999 344.437L938.1479999999999 329.382L916.1259999999999 342.097L920.0989999999998 348.986ZM939.137 352.031L985.39 366.084L987.6999999999999 358.473L938.1479999999999 343.418L916.1259999999999 356.133L920.0989999999998 363.022ZM939.137 366.068L985.39 380.12L987.6999999999999 372.509L938.1479999999999 357.45500000000004L916.1259999999999 370.16900000000004L920.0989999999998 377.05800000000005ZM939.137 380.104L985.39 394.157L987.6999999999999 386.546L938.1479999999999 371.491L916.1259999999999 384.205L920.0989999999998 391.094ZM939.137 394.14L985.39 408.193L987.6999999999999 400.582L938.1479999999999 385.528L916.1259999999999 398.242L920.0989999999998 405.13100000000003ZM985.476 421.947L987.7 414.619L938.148 399.564L916.126 412.278L918.35 416.134V435.19300000000004H909.9200000000001V421.94700000000006L912.1450000000001 414.6190000000001L862.5930000000001 399.5640000000001L840.57 412.2780000000001L842.7940000000001 416.13400000000007V435.1930000000001H831.0500000000001V442.8000000000001H1005.95V435.1930000000001H985.476ZM874.019 435.193V419.02099999999996L898.299 424.85099999999994V435.1929999999999ZM949.575 435.193V419.02099999999996L973.855 424.85099999999994V435.1929999999999Z " fill="#000000" fill-opacity="1" transform="matrix(1,0,0,1,-831,-259)"></path></svg>