<svg id="SvgjsSvg1000" xmlns="http://www.w3.org/2000/svg" version="1.1" xmlns:xlink="http://www.w3.org/1999/xlink" xmlns:svgjs="http://svgjs.com/svgjs" width="31" height="39" viewBox="0 0 31 39"><title>Shape 1</title><desc>Created with Avocode.</desc><defs id="SvgjsDefs1001"></defs><path id="SvgjsPath1007" d="M367.064 4540.53C360.856 4540.53 355.805 4545.57 355.805 4551.7699999999995C355.805 4557.959999999999 360.856 4562.999999999999 367.064 4562.999999999999C373.27200000000005 4562.999999999999 378.32300000000004 4557.959999999999 378.32300000000004 4551.7699999999995C378.32300000000004 4545.57 373.27200000000005 4540.53 367.064 4540.53ZM367.064 4537C358.793 4537 352.064 4543.71 352.064 4551.97C352.064 4555.46 353.27200000000005 4558.68 355.29400000000004 4561.2300000000005L367.064 4576.000000000001L378.834 4561.2300000000005C380.856 4558.68 382.064 4555.46 382.064 4551.97C382.064 4543.71 375.33500000000004 4537 367.064 4537ZM367.064 4564.77C359.87800000000004 4564.77 354.033 4558.9400000000005 354.033 4551.77C354.033 4544.6 359.87800000000004 4538.76 367.064 4538.76C374.249 4538.76 380.095 4544.6 380.095 4551.77C380.095 4558.9400000000005 374.249 4564.77 367.064 4564.77Z " fill="#3d5319" fill-opacity="1" transform="matrix(1,0,0,1,-352,-4537)"></path></svg>